<svg width="1366" height="768" viewBox="0 0 1366 768" fill="none" xmlns="http://www.w3.org/2000/svg">
<g clip-path="url(#clip0_122_3)">
<rect width="1366" height="768" rx="3" fill="#F7F9F8"/>
<rect width="1366" height="63" transform="matrix(-1 0 0 1 1366 -1)" fill="#3B657A" fill-opacity="0.94"/>
<g style="mix-blend-mode:color-burn" filter="url(#filter0_d_122_3)">
<rect x="16" y="167" width="318" height="91" rx="8" fill="white"/>
</g>
<g style="mix-blend-mode:color-burn" filter="url(#filter1_d_122_3)">
<rect x="354" y="167" width="318" height="91" rx="8" fill="white"/>
</g>
<g style="mix-blend-mode:color-burn" filter="url(#filter2_d_122_3)">
<rect x="16" y="284" width="994" height="219" rx="8" fill="white"/>
</g>
<g style="mix-blend-mode:color-burn" filter="url(#filter3_d_122_3)">
<rect x="1031" y="284" width="317" height="219" rx="8" fill="white"/>
</g>
<g style="mix-blend-mode:color-burn" filter="url(#filter4_d_122_3)">
<rect x="824" y="529" width="525" height="223" rx="8" fill="white"/>
</g>
<g style="mix-blend-mode:color-burn" filter="url(#filter5_d_122_3)">
<rect x="16" y="529" width="787" height="223" rx="8" fill="white"/>
</g>
<g style="mix-blend-mode:color-burn" filter="url(#filter6_d_122_3)">
<rect x="1031" y="166" width="318" height="92" rx="8" fill="white"/>
</g>
<g style="mix-blend-mode:color-burn" filter="url(#filter7_d_122_3)">
<rect x="692" y="166" width="318" height="92" rx="8" fill="white"/>
</g>
<path d="M183.792 24.54L182.012 39H179.392L180.182 32.65H174.092L173.312 39H170.702L172.482 24.54H175.092L174.322 30.81H180.402L181.182 24.54H183.792ZM187.614 37.25C188.027 37.25 188.401 37.1333 188.734 36.9C189.067 36.66 189.351 36.3433 189.584 35.95C189.817 35.55 189.997 35.0867 190.124 34.56C190.251 34.0333 190.314 33.48 190.314 32.9C190.314 32.0667 190.174 31.4567 189.894 31.07C189.614 30.6767 189.187 30.48 188.614 30.48C188.201 30.48 187.824 30.5967 187.484 30.83C187.151 31.0633 186.867 31.38 186.634 31.78C186.401 32.1733 186.221 32.6333 186.094 33.16C185.967 33.6867 185.904 34.2433 185.904 34.83C185.904 35.6633 186.044 36.2767 186.324 36.67C186.604 37.0567 187.034 37.25 187.614 37.25ZM187.384 39.15C186.817 39.15 186.294 39.0567 185.814 38.87C185.334 38.6767 184.917 38.3967 184.564 38.03C184.211 37.6633 183.934 37.2133 183.734 36.68C183.534 36.1467 183.434 35.5367 183.434 34.85C183.434 33.9633 183.577 33.1367 183.864 32.37C184.151 31.6033 184.537 30.94 185.024 30.38C185.517 29.82 186.091 29.38 186.744 29.06C187.397 28.74 188.094 28.58 188.834 28.58C189.401 28.58 189.924 28.6767 190.404 28.87C190.891 29.0567 191.307 29.3333 191.654 29.7C192.007 30.0667 192.284 30.5167 192.484 31.05C192.684 31.5833 192.784 32.1933 192.784 32.88C192.784 33.76 192.641 34.5833 192.354 35.35C192.067 36.11 191.677 36.7733 191.184 37.34C190.697 37.9 190.127 38.3433 189.474 38.67C188.821 38.99 188.124 39.15 187.384 39.15ZM192.863 39L194.103 28.73H195.363C195.623 28.73 195.823 28.7933 195.963 28.92C196.11 29.0467 196.183 29.25 196.183 29.53L196.133 30.66C196.593 29.96 197.093 29.44 197.633 29.1C198.173 28.7533 198.736 28.58 199.323 28.58C199.95 28.58 200.446 28.79 200.813 29.21C201.18 29.63 201.393 30.2367 201.453 31.03C201.933 30.19 202.463 29.5733 203.043 29.18C203.63 28.78 204.266 28.58 204.953 28.58C205.386 28.58 205.766 28.6667 206.093 28.84C206.42 29.0133 206.686 29.2667 206.893 29.6C207.1 29.9267 207.24 30.3333 207.313 30.82C207.386 31.3 207.383 31.85 207.303 32.47L206.533 39H204.093L204.863 32.47C204.95 31.8033 204.93 31.3267 204.803 31.04C204.683 30.7467 204.436 30.6 204.063 30.6C203.81 30.6 203.563 30.6667 203.323 30.8C203.083 30.9333 202.853 31.1267 202.633 31.38C202.42 31.6333 202.22 31.9433 202.033 32.31C201.853 32.6767 201.693 33.09 201.553 33.55L200.913 39H198.473L199.253 32.47C199.333 31.8033 199.316 31.3267 199.203 31.04C199.09 30.7467 198.843 30.6 198.463 30.6C198.196 30.6 197.94 30.67 197.693 30.81C197.453 30.95 197.223 31.1533 197.003 31.42C196.79 31.68 196.59 32 196.403 32.38C196.223 32.7533 196.063 33.1733 195.923 33.64L195.283 39H192.863ZM213.072 30.32C212.739 30.32 212.429 30.39 212.142 30.53C211.856 30.6633 211.596 30.8533 211.362 31.1C211.136 31.3467 210.936 31.6433 210.762 31.99C210.596 32.33 210.462 32.7033 210.362 33.11C211.189 32.9967 211.852 32.8733 212.352 32.74C212.859 32.6 213.249 32.4533 213.522 32.3C213.796 32.14 213.976 31.97 214.062 31.79C214.156 31.6033 214.202 31.41 214.202 31.21C214.202 31.11 214.179 31.0067 214.132 30.9C214.092 30.7933 214.026 30.7 213.932 30.62C213.846 30.5333 213.729 30.4633 213.582 30.41C213.442 30.35 213.272 30.32 213.072 30.32ZM210.152 34.82C210.152 36.4333 210.836 37.24 212.202 37.24C212.496 37.24 212.756 37.2133 212.982 37.16C213.209 37.1 213.406 37.03 213.572 36.95C213.746 36.87 213.899 36.78 214.032 36.68C214.172 36.58 214.299 36.49 214.412 36.41C214.532 36.33 214.649 36.2633 214.762 36.21C214.876 36.15 214.999 36.12 215.132 36.12C215.212 36.12 215.289 36.14 215.362 36.18C215.442 36.22 215.512 36.2733 215.572 36.34L216.202 37.1C215.849 37.4533 215.502 37.76 215.162 38.02C214.822 38.28 214.476 38.4933 214.122 38.66C213.769 38.8267 213.396 38.95 213.002 39.03C212.609 39.11 212.182 39.15 211.722 39.15C211.122 39.15 210.579 39.05 210.092 38.85C209.606 38.6433 209.189 38.3567 208.842 37.99C208.496 37.6167 208.226 37.17 208.032 36.65C207.846 36.1233 207.752 35.5367 207.752 34.89C207.752 34.35 207.809 33.82 207.922 33.3C208.042 32.78 208.212 32.2867 208.432 31.82C208.652 31.3533 208.922 30.9233 209.242 30.53C209.562 30.1367 209.922 29.7967 210.322 29.51C210.729 29.2233 211.172 29 211.652 28.84C212.139 28.68 212.659 28.6 213.212 28.6C213.746 28.6 214.212 28.6767 214.612 28.83C215.019 28.9833 215.356 29.1833 215.622 29.43C215.896 29.67 216.099 29.94 216.232 30.24C216.366 30.54 216.432 30.8333 216.432 31.12C216.432 31.58 216.339 32 216.152 32.38C215.972 32.76 215.646 33.1 215.172 33.4C214.706 33.7 214.066 33.96 213.252 34.18C212.439 34.3933 211.406 34.5633 210.152 34.69V34.82Z" fill="#F4FFF9"/>
<path d="M183.792 24.54L182.012 39H179.392L180.182 32.65H174.092L173.312 39H170.702L172.482 24.54H175.092L174.322 30.81H180.402L181.182 24.54H183.792ZM187.614 37.25C188.027 37.25 188.401 37.1333 188.734 36.9C189.067 36.66 189.351 36.3433 189.584 35.95C189.817 35.55 189.997 35.0867 190.124 34.56C190.251 34.0333 190.314 33.48 190.314 32.9C190.314 32.0667 190.174 31.4567 189.894 31.07C189.614 30.6767 189.187 30.48 188.614 30.48C188.201 30.48 187.824 30.5967 187.484 30.83C187.151 31.0633 186.867 31.38 186.634 31.78C186.401 32.1733 186.221 32.6333 186.094 33.16C185.967 33.6867 185.904 34.2433 185.904 34.83C185.904 35.6633 186.044 36.2767 186.324 36.67C186.604 37.0567 187.034 37.25 187.614 37.25ZM187.384 39.15C186.817 39.15 186.294 39.0567 185.814 38.87C185.334 38.6767 184.917 38.3967 184.564 38.03C184.211 37.6633 183.934 37.2133 183.734 36.68C183.534 36.1467 183.434 35.5367 183.434 34.85C183.434 33.9633 183.577 33.1367 183.864 32.37C184.151 31.6033 184.537 30.94 185.024 30.38C185.517 29.82 186.091 29.38 186.744 29.06C187.397 28.74 188.094 28.58 188.834 28.58C189.401 28.58 189.924 28.6767 190.404 28.87C190.891 29.0567 191.307 29.3333 191.654 29.7C192.007 30.0667 192.284 30.5167 192.484 31.05C192.684 31.5833 192.784 32.1933 192.784 32.88C192.784 33.76 192.641 34.5833 192.354 35.35C192.067 36.11 191.677 36.7733 191.184 37.34C190.697 37.9 190.127 38.3433 189.474 38.67C188.821 38.99 188.124 39.15 187.384 39.15ZM192.863 39L194.103 28.73H195.363C195.623 28.73 195.823 28.7933 195.963 28.92C196.11 29.0467 196.183 29.25 196.183 29.53L196.133 30.66C196.593 29.96 197.093 29.44 197.633 29.1C198.173 28.7533 198.736 28.58 199.323 28.58C199.95 28.58 200.446 28.79 200.813 29.21C201.18 29.63 201.393 30.2367 201.453 31.03C201.933 30.19 202.463 29.5733 203.043 29.18C203.63 28.78 204.266 28.58 204.953 28.58C205.386 28.58 205.766 28.6667 206.093 28.84C206.42 29.0133 206.686 29.2667 206.893 29.6C207.1 29.9267 207.24 30.3333 207.313 30.82C207.386 31.3 207.383 31.85 207.303 32.47L206.533 39H204.093L204.863 32.47C204.95 31.8033 204.93 31.3267 204.803 31.04C204.683 30.7467 204.436 30.6 204.063 30.6C203.81 30.6 203.563 30.6667 203.323 30.8C203.083 30.9333 202.853 31.1267 202.633 31.38C202.42 31.6333 202.22 31.9433 202.033 32.31C201.853 32.6767 201.693 33.09 201.553 33.55L200.913 39H198.473L199.253 32.47C199.333 31.8033 199.316 31.3267 199.203 31.04C199.09 30.7467 198.843 30.6 198.463 30.6C198.196 30.6 197.94 30.67 197.693 30.81C197.453 30.95 197.223 31.1533 197.003 31.42C196.79 31.68 196.59 32 196.403 32.38C196.223 32.7533 196.063 33.1733 195.923 33.64L195.283 39H192.863ZM213.072 30.32C212.739 30.32 212.429 30.39 212.142 30.53C211.856 30.6633 211.596 30.8533 211.362 31.1C211.136 31.3467 210.936 31.6433 210.762 31.99C210.596 32.33 210.462 32.7033 210.362 33.11C211.189 32.9967 211.852 32.8733 212.352 32.74C212.859 32.6 213.249 32.4533 213.522 32.3C213.796 32.14 213.976 31.97 214.062 31.79C214.156 31.6033 214.202 31.41 214.202 31.21C214.202 31.11 214.179 31.0067 214.132 30.9C214.092 30.7933 214.026 30.7 213.932 30.62C213.846 30.5333 213.729 30.4633 213.582 30.41C213.442 30.35 213.272 30.32 213.072 30.32ZM210.152 34.82C210.152 36.4333 210.836 37.24 212.202 37.24C212.496 37.24 212.756 37.2133 212.982 37.16C213.209 37.1 213.406 37.03 213.572 36.95C213.746 36.87 213.899 36.78 214.032 36.68C214.172 36.58 214.299 36.49 214.412 36.41C214.532 36.33 214.649 36.2633 214.762 36.21C214.876 36.15 214.999 36.12 215.132 36.12C215.212 36.12 215.289 36.14 215.362 36.18C215.442 36.22 215.512 36.2733 215.572 36.34L216.202 37.1C215.849 37.4533 215.502 37.76 215.162 38.02C214.822 38.28 214.476 38.4933 214.122 38.66C213.769 38.8267 213.396 38.95 213.002 39.03C212.609 39.11 212.182 39.15 211.722 39.15C211.122 39.15 210.579 39.05 210.092 38.85C209.606 38.6433 209.189 38.3567 208.842 37.99C208.496 37.6167 208.226 37.17 208.032 36.65C207.846 36.1233 207.752 35.5367 207.752 34.89C207.752 34.35 207.809 33.82 207.922 33.3C208.042 32.78 208.212 32.2867 208.432 31.82C208.652 31.3533 208.922 30.9233 209.242 30.53C209.562 30.1367 209.922 29.7967 210.322 29.51C210.729 29.2233 211.172 29 211.652 28.84C212.139 28.68 212.659 28.6 213.212 28.6C213.746 28.6 214.212 28.6767 214.612 28.83C215.019 28.9833 215.356 29.1833 215.622 29.43C215.896 29.67 216.099 29.94 216.232 30.24C216.366 30.54 216.432 30.8333 216.432 31.12C216.432 31.58 216.339 32 216.152 32.38C215.972 32.76 215.646 33.1 215.172 33.4C214.706 33.7 214.066 33.96 213.252 34.18C212.439 34.3933 211.406 34.5633 210.152 34.69V34.82Z" fill="#F4FFF9"/>
<path d="M603.54 31.86C604.053 31.86 604.497 31.7833 604.87 31.63C605.243 31.4767 605.55 31.2633 605.79 30.99C606.037 30.71 606.217 30.38 606.33 30C606.45 29.62 606.51 29.2 606.51 28.74C606.51 28.4133 606.463 28.1133 606.37 27.84C606.277 27.5667 606.133 27.3367 605.94 27.15C605.747 26.9567 605.503 26.8067 605.21 26.7C604.923 26.5933 604.58 26.54 604.18 26.54H602.38L601.73 31.86H603.54ZM604.43 24.54C605.25 24.54 605.953 24.64 606.54 24.84C607.133 25.0333 607.62 25.3067 608 25.66C608.38 26.0133 608.66 26.4333 608.84 26.92C609.027 27.4 609.12 27.93 609.12 28.51C609.12 29.2833 608.997 30 608.75 30.66C608.51 31.3133 608.147 31.88 607.66 32.36C607.173 32.8333 606.563 33.2067 605.83 33.48C605.103 33.7467 604.253 33.88 603.28 33.88H601.48L600.85 39H598.27L600.03 24.54H604.43ZM613.441 30.32C613.108 30.32 612.798 30.39 612.511 30.53C612.225 30.6633 611.965 30.8533 611.731 31.1C611.505 31.3467 611.305 31.6433 611.131 31.99C610.965 32.33 610.831 32.7033 610.731 33.11C611.558 32.9967 612.221 32.8733 612.721 32.74C613.228 32.6 613.618 32.4533 613.891 32.3C614.165 32.14 614.345 31.97 614.431 31.79C614.525 31.6033 614.571 31.41 614.571 31.21C614.571 31.11 614.548 31.0067 614.501 30.9C614.461 30.7933 614.395 30.7 614.301 30.62C614.215 30.5333 614.098 30.4633 613.951 30.41C613.811 30.35 613.641 30.32 613.441 30.32ZM610.521 34.82C610.521 36.4333 611.205 37.24 612.571 37.24C612.865 37.24 613.125 37.2133 613.351 37.16C613.578 37.1 613.775 37.03 613.941 36.95C614.115 36.87 614.268 36.78 614.401 36.68C614.541 36.58 614.668 36.49 614.781 36.41C614.901 36.33 615.018 36.2633 615.131 36.21C615.245 36.15 615.368 36.12 615.501 36.12C615.581 36.12 615.658 36.14 615.731 36.18C615.811 36.22 615.881 36.2733 615.941 36.34L616.571 37.1C616.218 37.4533 615.871 37.76 615.531 38.02C615.191 38.28 614.845 38.4933 614.491 38.66C614.138 38.8267 613.765 38.95 613.371 39.03C612.978 39.11 612.551 39.15 612.091 39.15C611.491 39.15 610.948 39.05 610.461 38.85C609.975 38.6433 609.558 38.3567 609.211 37.99C608.865 37.6167 608.595 37.17 608.401 36.65C608.215 36.1233 608.121 35.5367 608.121 34.89C608.121 34.35 608.178 33.82 608.291 33.3C608.411 32.78 608.581 32.2867 608.801 31.82C609.021 31.3533 609.291 30.9233 609.611 30.53C609.931 30.1367 610.291 29.7967 610.691 29.51C611.098 29.2233 611.541 29 612.021 28.84C612.508 28.68 613.028 28.6 613.581 28.6C614.115 28.6 614.581 28.6767 614.981 28.83C615.388 28.9833 615.725 29.1833 615.991 29.43C616.265 29.67 616.468 29.94 616.601 30.24C616.735 30.54 616.801 30.8333 616.801 31.12C616.801 31.58 616.708 32 616.521 32.38C616.341 32.76 616.015 33.1 615.541 33.4C615.075 33.7 614.435 33.96 613.621 34.18C612.808 34.3933 611.775 34.5633 610.521 34.69V34.82ZM620.088 31.2C620.348 30.6933 620.624 30.26 620.918 29.9C621.218 29.5333 621.528 29.25 621.848 29.05C622.168 28.8433 622.498 28.7233 622.838 28.69C623.178 28.65 623.518 28.7033 623.858 28.85L623.408 31.21C622.594 30.87 621.881 30.9533 621.268 31.46C620.661 31.9667 620.174 32.9633 619.808 34.45L619.258 39H616.838L618.078 28.73H619.338C619.598 28.73 619.798 28.7933 619.938 28.92C620.084 29.0467 620.158 29.25 620.158 29.53L620.088 31.2ZM626.988 30.59L626.018 38.58L625.508 40.46C625.408 40.78 625.261 41.0267 625.068 41.2C624.874 41.38 624.598 41.47 624.238 41.47H623.248L624.558 30.59L623.768 30.45C623.614 30.4167 623.488 30.3533 623.388 30.26C623.288 30.16 623.251 30.0167 623.278 29.83L623.398 28.83H624.778L624.868 28.07C624.941 27.4833 625.094 26.9567 625.328 26.49C625.568 26.0233 625.868 25.6267 626.228 25.3C626.594 24.9733 627.014 24.7233 627.488 24.55C627.961 24.3767 628.471 24.29 629.018 24.29C629.444 24.29 629.838 24.3533 630.198 24.48L629.978 25.76C629.944 25.9133 629.851 26.0067 629.698 26.04C629.544 26.0667 629.371 26.08 629.178 26.08C628.911 26.08 628.664 26.1167 628.438 26.19C628.218 26.2633 628.021 26.3833 627.848 26.55C627.681 26.71 627.541 26.9233 627.428 27.19C627.321 27.45 627.244 27.77 627.198 28.15L627.118 28.83H629.418L629.188 30.59H626.988ZM632.495 37.25C632.908 37.25 633.282 37.1333 633.615 36.9C633.948 36.66 634.232 36.3433 634.465 35.95C634.698 35.55 634.878 35.0867 635.005 34.56C635.132 34.0333 635.195 33.48 635.195 32.9C635.195 32.0667 635.055 31.4567 634.775 31.07C634.495 30.6767 634.068 30.48 633.495 30.48C633.082 30.48 632.705 30.5967 632.365 30.83C632.032 31.0633 631.748 31.38 631.515 31.78C631.282 32.1733 631.102 32.6333 630.975 33.16C630.848 33.6867 630.785 34.2433 630.785 34.83C630.785 35.6633 630.925 36.2767 631.205 36.67C631.485 37.0567 631.915 37.25 632.495 37.25ZM632.265 39.15C631.698 39.15 631.175 39.0567 630.695 38.87C630.215 38.6767 629.798 38.3967 629.445 38.03C629.092 37.6633 628.815 37.2133 628.615 36.68C628.415 36.1467 628.315 35.5367 628.315 34.85C628.315 33.9633 628.458 33.1367 628.745 32.37C629.032 31.6033 629.418 30.94 629.905 30.38C630.398 29.82 630.972 29.38 631.625 29.06C632.278 28.74 632.975 28.58 633.715 28.58C634.282 28.58 634.805 28.6767 635.285 28.87C635.772 29.0567 636.188 29.3333 636.535 29.7C636.888 30.0667 637.165 30.5167 637.365 31.05C637.565 31.5833 637.665 32.1933 637.665 32.88C637.665 33.76 637.522 34.5833 637.235 35.35C636.948 36.11 636.558 36.7733 636.065 37.34C635.578 37.9 635.008 38.3433 634.355 38.67C633.702 38.99 633.005 39.15 632.265 39.15ZM640.994 31.2C641.254 30.6933 641.53 30.26 641.824 29.9C642.124 29.5333 642.434 29.25 642.754 29.05C643.074 28.8433 643.404 28.7233 643.744 28.69C644.084 28.65 644.424 28.7033 644.764 28.85L644.314 31.21C643.5 30.87 642.787 30.9533 642.174 31.46C641.567 31.9667 641.08 32.9633 640.714 34.45L640.164 39H637.744L638.984 28.73H640.244C640.504 28.73 640.704 28.7933 640.844 28.92C640.99 29.0467 641.064 29.25 641.064 29.53L640.994 31.2ZM643.814 39L645.054 28.73H646.314C646.574 28.73 646.774 28.7933 646.914 28.92C647.061 29.0467 647.134 29.25 647.134 29.53L647.084 30.66C647.544 29.96 648.044 29.44 648.584 29.1C649.124 28.7533 649.687 28.58 650.274 28.58C650.901 28.58 651.397 28.79 651.764 29.21C652.131 29.63 652.344 30.2367 652.404 31.03C652.884 30.19 653.414 29.5733 653.994 29.18C654.581 28.78 655.217 28.58 655.904 28.58C656.337 28.58 656.717 28.6667 657.044 28.84C657.371 29.0133 657.637 29.2667 657.844 29.6C658.051 29.9267 658.191 30.3333 658.264 30.82C658.337 31.3 658.334 31.85 658.254 32.47L657.484 39H655.044L655.814 32.47C655.901 31.8033 655.881 31.3267 655.754 31.04C655.634 30.7467 655.387 30.6 655.014 30.6C654.761 30.6 654.514 30.6667 654.274 30.8C654.034 30.9333 653.804 31.1267 653.584 31.38C653.371 31.6333 653.171 31.9433 652.984 32.31C652.804 32.6767 652.644 33.09 652.504 33.55L651.864 39H649.424L650.204 32.47C650.284 31.8033 650.267 31.3267 650.154 31.04C650.041 30.7467 649.794 30.6 649.414 30.6C649.147 30.6 648.891 30.67 648.644 30.81C648.404 30.95 648.174 31.1533 647.954 31.42C647.741 31.68 647.541 32 647.354 32.38C647.174 32.7533 647.014 33.1733 646.874 33.64L646.234 39H643.814ZM665.473 30.36C665.38 30.3533 665.29 30.35 665.203 30.35C665.123 30.3433 665.043 30.34 664.963 30.34C664.41 30.34 663.897 30.4667 663.423 30.72C662.95 30.9733 662.54 31.3167 662.193 31.75C661.853 32.1767 661.583 32.6767 661.383 33.25C661.19 33.8167 661.093 34.4167 661.093 35.05C661.093 35.77 661.207 36.2967 661.433 36.63C661.66 36.9633 661.97 37.13 662.363 37.13C662.637 37.13 662.903 37.0367 663.163 36.85C663.43 36.6567 663.68 36.3967 663.913 36.07C664.153 35.7367 664.37 35.3467 664.563 34.9C664.763 34.4533 664.937 33.9733 665.083 33.46L665.473 30.36ZM664.793 36.86C664.34 37.56 663.827 38.1167 663.253 38.53C662.687 38.9433 662.067 39.15 661.393 39.15C661.007 39.15 660.643 39.0733 660.303 38.92C659.97 38.7667 659.677 38.54 659.423 38.24C659.177 37.9333 658.98 37.5533 658.833 37.1C658.693 36.64 658.623 36.1033 658.623 35.49C658.623 34.8767 658.7 34.28 658.853 33.7C659.007 33.12 659.223 32.5767 659.503 32.07C659.79 31.5567 660.133 31.0867 660.533 30.66C660.933 30.2333 661.38 29.8667 661.873 29.56C662.373 29.2533 662.91 29.0167 663.483 28.85C664.063 28.6767 664.673 28.59 665.313 28.59C665.773 28.59 666.233 28.6233 666.693 28.69C667.16 28.7567 667.613 28.8767 668.053 29.05L666.823 39H665.513C665.2 39 664.987 38.9233 664.873 38.77C664.767 38.61 664.713 38.4133 664.713 38.18L664.793 36.86ZM671.334 30.86C671.854 30.0933 672.43 29.5233 673.064 29.15C673.697 28.77 674.35 28.58 675.024 28.58C675.45 28.58 675.834 28.6667 676.174 28.84C676.514 29.0133 676.794 29.2667 677.014 29.6C677.234 29.9267 677.387 30.3333 677.474 30.82C677.567 31.3 677.574 31.85 677.494 32.47L676.724 39H674.254L675.024 32.47C675.11 31.8033 675.077 31.3267 674.924 31.04C674.77 30.7467 674.49 30.6 674.084 30.6C673.81 30.6 673.53 30.68 673.244 30.84C672.957 30.9933 672.68 31.2167 672.414 31.51C672.147 31.7967 671.9 32.1433 671.674 32.55C671.454 32.95 671.274 33.4 671.134 33.9L670.564 39H668.094L669.324 28.73H670.574C670.834 28.73 671.034 28.7933 671.174 28.92C671.32 29.0467 671.394 29.25 671.394 29.53L671.334 30.86ZM685.814 37.18C685.474 37.5533 685.147 37.8667 684.834 38.12C684.527 38.3733 684.214 38.5767 683.894 38.73C683.574 38.8833 683.237 38.99 682.884 39.05C682.537 39.1167 682.154 39.15 681.734 39.15C681.141 39.15 680.607 39.05 680.134 38.85C679.667 38.6433 679.271 38.3533 678.944 37.98C678.617 37.6067 678.367 37.1567 678.194 36.63C678.021 36.1033 677.934 35.5167 677.934 34.87C677.934 34.3167 677.994 33.7767 678.114 33.25C678.234 32.7233 678.407 32.2267 678.634 31.76C678.861 31.2933 679.134 30.8667 679.454 30.48C679.774 30.0933 680.134 29.76 680.534 29.48C680.934 29.2 681.367 28.9833 681.834 28.83C682.307 28.67 682.807 28.59 683.334 28.59C684.014 28.59 684.591 28.71 685.064 28.95C685.544 29.19 685.967 29.55 686.334 30.03L685.544 30.97C685.491 31.03 685.424 31.0867 685.344 31.14C685.264 31.1867 685.177 31.21 685.084 31.21C684.971 31.21 684.867 31.1767 684.774 31.11C684.687 31.0367 684.581 30.96 684.454 30.88C684.334 30.8 684.181 30.7267 683.994 30.66C683.814 30.5867 683.577 30.55 683.284 30.55C682.904 30.55 682.541 30.6533 682.194 30.86C681.847 31.0667 681.541 31.36 681.274 31.74C681.007 32.12 680.794 32.5767 680.634 33.11C680.481 33.6433 680.404 34.2333 680.404 34.88C680.404 35.6333 680.571 36.2167 680.904 36.63C681.237 37.0367 681.691 37.24 682.264 37.24C682.517 37.24 682.741 37.2133 682.934 37.16C683.127 37.1067 683.297 37.0433 683.444 36.97C683.597 36.89 683.731 36.8067 683.844 36.72C683.957 36.6267 684.064 36.5433 684.164 36.47C684.264 36.39 684.357 36.3233 684.444 36.27C684.537 36.2167 684.637 36.19 684.744 36.19C684.831 36.19 684.911 36.2133 684.984 36.26C685.064 36.3 685.134 36.3533 685.194 36.42L685.814 37.18ZM691.102 30.32C690.768 30.32 690.458 30.39 690.172 30.53C689.885 30.6633 689.625 30.8533 689.392 31.1C689.165 31.3467 688.965 31.6433 688.792 31.99C688.625 32.33 688.492 32.7033 688.392 33.11C689.218 32.9967 689.882 32.8733 690.382 32.74C690.888 32.6 691.278 32.4533 691.552 32.3C691.825 32.14 692.005 31.97 692.092 31.79C692.185 31.6033 692.232 31.41 692.232 31.21C692.232 31.11 692.208 31.0067 692.162 30.9C692.122 30.7933 692.055 30.7 691.962 30.62C691.875 30.5333 691.758 30.4633 691.612 30.41C691.472 30.35 691.302 30.32 691.102 30.32ZM688.182 34.82C688.182 36.4333 688.865 37.24 690.232 37.24C690.525 37.24 690.785 37.2133 691.012 37.16C691.238 37.1 691.435 37.03 691.602 36.95C691.775 36.87 691.928 36.78 692.062 36.68C692.202 36.58 692.328 36.49 692.442 36.41C692.562 36.33 692.678 36.2633 692.792 36.21C692.905 36.15 693.028 36.12 693.162 36.12C693.242 36.12 693.318 36.14 693.392 36.18C693.472 36.22 693.542 36.2733 693.602 36.34L694.232 37.1C693.878 37.4533 693.532 37.76 693.192 38.02C692.852 38.28 692.505 38.4933 692.152 38.66C691.798 38.8267 691.425 38.95 691.032 39.03C690.638 39.11 690.212 39.15 689.752 39.15C689.152 39.15 688.608 39.05 688.122 38.85C687.635 38.6433 687.218 38.3567 686.872 37.99C686.525 37.6167 686.255 37.17 686.062 36.65C685.875 36.1233 685.782 35.5367 685.782 34.89C685.782 34.35 685.838 33.82 685.952 33.3C686.072 32.78 686.242 32.2867 686.462 31.82C686.682 31.3533 686.952 30.9233 687.272 30.53C687.592 30.1367 687.952 29.7967 688.352 29.51C688.758 29.2233 689.202 29 689.682 28.84C690.168 28.68 690.688 28.6 691.242 28.6C691.775 28.6 692.242 28.6767 692.642 28.83C693.048 28.9833 693.385 29.1833 693.652 29.43C693.925 29.67 694.128 29.94 694.262 30.24C694.395 30.54 694.462 30.8333 694.462 31.12C694.462 31.58 694.368 32 694.182 32.38C694.002 32.76 693.675 33.1 693.202 33.4C692.735 33.7 692.095 33.96 691.282 34.18C690.468 34.3933 689.435 34.5633 688.182 34.69V34.82ZM702.383 26.61L701.833 31.01H706.753L706.473 33.08H701.583L700.853 39H698.243L700.023 24.54H708.453L708.193 26.61H702.383ZM711.121 28.74L709.891 39H707.461L708.691 28.74H711.121ZM711.751 25.75C711.751 25.9633 711.704 26.1633 711.611 26.35C711.524 26.5367 711.408 26.7 711.261 26.84C711.114 26.98 710.948 27.0933 710.761 27.18C710.574 27.26 710.381 27.3 710.181 27.3C709.988 27.3 709.801 27.26 709.621 27.18C709.441 27.0933 709.281 26.98 709.141 26.84C709.001 26.7 708.888 26.5367 708.801 26.35C708.721 26.1633 708.681 25.9633 708.681 25.75C708.681 25.5367 708.724 25.3333 708.811 25.14C708.898 24.9467 709.011 24.78 709.151 24.64C709.291 24.4933 709.451 24.38 709.631 24.3C709.818 24.2133 710.008 24.17 710.201 24.17C710.401 24.17 710.594 24.2133 710.781 24.3C710.968 24.38 711.131 24.49 711.271 24.63C711.418 24.77 711.534 24.9367 711.621 25.13C711.708 25.3233 711.751 25.53 711.751 25.75ZM714.513 30.86C715.033 30.0933 715.61 29.5233 716.243 29.15C716.877 28.77 717.53 28.58 718.203 28.58C718.63 28.58 719.013 28.6667 719.353 28.84C719.693 29.0133 719.973 29.2667 720.193 29.6C720.413 29.9267 720.567 30.3333 720.653 30.82C720.747 31.3 720.753 31.85 720.673 32.47L719.903 39H717.433L718.203 32.47C718.29 31.8033 718.257 31.3267 718.103 31.04C717.95 30.7467 717.67 30.6 717.263 30.6C716.99 30.6 716.71 30.68 716.423 30.84C716.137 30.9933 715.86 31.2167 715.593 31.51C715.327 31.7967 715.08 32.1433 714.853 32.55C714.633 32.95 714.453 33.4 714.313 33.9L713.743 39H711.273L712.503 28.73H713.753C714.013 28.73 714.213 28.7933 714.353 28.92C714.5 29.0467 714.573 29.25 714.573 29.53L714.513 30.86ZM727.884 30.36C727.79 30.3533 727.7 30.35 727.614 30.35C727.534 30.3433 727.454 30.34 727.374 30.34C726.82 30.34 726.307 30.4667 725.834 30.72C725.36 30.9733 724.95 31.3167 724.604 31.75C724.264 32.1767 723.994 32.6767 723.794 33.25C723.6 33.8167 723.504 34.4167 723.504 35.05C723.504 35.77 723.617 36.2967 723.844 36.63C724.07 36.9633 724.38 37.13 724.774 37.13C725.047 37.13 725.314 37.0367 725.574 36.85C725.84 36.6567 726.09 36.3967 726.324 36.07C726.564 35.7367 726.78 35.3467 726.974 34.9C727.174 34.4533 727.347 33.9733 727.494 33.46L727.884 30.36ZM727.204 36.86C726.75 37.56 726.237 38.1167 725.664 38.53C725.097 38.9433 724.477 39.15 723.804 39.15C723.417 39.15 723.054 39.0733 722.714 38.92C722.38 38.7667 722.087 38.54 721.834 38.24C721.587 37.9333 721.39 37.5533 721.244 37.1C721.104 36.64 721.034 36.1033 721.034 35.49C721.034 34.8767 721.11 34.28 721.264 33.7C721.417 33.12 721.634 32.5767 721.914 32.07C722.2 31.5567 722.544 31.0867 722.944 30.66C723.344 30.2333 723.79 29.8667 724.284 29.56C724.784 29.2533 725.32 29.0167 725.894 28.85C726.474 28.6767 727.084 28.59 727.724 28.59C728.184 28.59 728.644 28.6233 729.104 28.69C729.57 28.7567 730.024 28.8767 730.464 29.05L729.234 39H727.924C727.61 39 727.397 38.9233 727.284 38.77C727.177 38.61 727.124 38.4133 727.124 38.18L727.204 36.86ZM733.744 30.86C734.264 30.0933 734.84 29.5233 735.474 29.15C736.107 28.77 736.76 28.58 737.434 28.58C737.86 28.58 738.244 28.6667 738.584 28.84C738.924 29.0133 739.204 29.2667 739.424 29.6C739.644 29.9267 739.797 30.3333 739.884 30.82C739.977 31.3 739.984 31.85 739.904 32.47L739.134 39H736.664L737.434 32.47C737.52 31.8033 737.487 31.3267 737.334 31.04C737.18 30.7467 736.9 30.6 736.494 30.6C736.22 30.6 735.94 30.68 735.654 30.84C735.367 30.9933 735.09 31.2167 734.824 31.51C734.557 31.7967 734.31 32.1433 734.084 32.55C733.864 32.95 733.684 33.4 733.544 33.9L732.974 39H730.504L731.734 28.73H732.984C733.244 28.73 733.444 28.7933 733.584 28.92C733.73 29.0467 733.804 29.25 733.804 29.53L733.744 30.86ZM748.224 37.18C747.884 37.5533 747.557 37.8667 747.244 38.12C746.937 38.3733 746.624 38.5767 746.304 38.73C745.984 38.8833 745.647 38.99 745.294 39.05C744.947 39.1167 744.564 39.15 744.144 39.15C743.551 39.15 743.017 39.05 742.544 38.85C742.077 38.6433 741.681 38.3533 741.354 37.98C741.027 37.6067 740.777 37.1567 740.604 36.63C740.431 36.1033 740.344 35.5167 740.344 34.87C740.344 34.3167 740.404 33.7767 740.524 33.25C740.644 32.7233 740.817 32.2267 741.044 31.76C741.271 31.2933 741.544 30.8667 741.864 30.48C742.184 30.0933 742.544 29.76 742.944 29.48C743.344 29.2 743.777 28.9833 744.244 28.83C744.717 28.67 745.217 28.59 745.744 28.59C746.424 28.59 747.001 28.71 747.474 28.95C747.954 29.19 748.377 29.55 748.744 30.03L747.954 30.97C747.901 31.03 747.834 31.0867 747.754 31.14C747.674 31.1867 747.587 31.21 747.494 31.21C747.381 31.21 747.277 31.1767 747.184 31.11C747.097 31.0367 746.991 30.96 746.864 30.88C746.744 30.8 746.591 30.7267 746.404 30.66C746.224 30.5867 745.987 30.55 745.694 30.55C745.314 30.55 744.951 30.6533 744.604 30.86C744.257 31.0667 743.951 31.36 743.684 31.74C743.417 32.12 743.204 32.5767 743.044 33.11C742.891 33.6433 742.814 34.2333 742.814 34.88C742.814 35.6333 742.981 36.2167 743.314 36.63C743.647 37.0367 744.101 37.24 744.674 37.24C744.927 37.24 745.151 37.2133 745.344 37.16C745.537 37.1067 745.707 37.0433 745.854 36.97C746.007 36.89 746.141 36.8067 746.254 36.72C746.367 36.6267 746.474 36.5433 746.574 36.47C746.674 36.39 746.767 36.3233 746.854 36.27C746.947 36.2167 747.047 36.19 747.154 36.19C747.241 36.19 747.321 36.2133 747.394 36.26C747.474 36.3 747.544 36.3533 747.604 36.42L748.224 37.18ZM753.512 30.32C753.178 30.32 752.868 30.39 752.582 30.53C752.295 30.6633 752.035 30.8533 751.802 31.1C751.575 31.3467 751.375 31.6433 751.202 31.99C751.035 32.33 750.902 32.7033 750.802 33.11C751.628 32.9967 752.292 32.8733 752.792 32.74C753.298 32.6 753.688 32.4533 753.962 32.3C754.235 32.14 754.415 31.97 754.502 31.79C754.595 31.6033 754.642 31.41 754.642 31.21C754.642 31.11 754.618 31.0067 754.572 30.9C754.532 30.7933 754.465 30.7 754.372 30.62C754.285 30.5333 754.168 30.4633 754.022 30.41C753.882 30.35 753.712 30.32 753.512 30.32ZM750.592 34.82C750.592 36.4333 751.275 37.24 752.642 37.24C752.935 37.24 753.195 37.2133 753.422 37.16C753.648 37.1 753.845 37.03 754.012 36.95C754.185 36.87 754.338 36.78 754.472 36.68C754.612 36.58 754.738 36.49 754.852 36.41C754.972 36.33 755.088 36.2633 755.202 36.21C755.315 36.15 755.438 36.12 755.572 36.12C755.652 36.12 755.728 36.14 755.802 36.18C755.882 36.22 755.952 36.2733 756.012 36.34L756.642 37.1C756.288 37.4533 755.942 37.76 755.602 38.02C755.262 38.28 754.915 38.4933 754.562 38.66C754.208 38.8267 753.835 38.95 753.442 39.03C753.048 39.11 752.622 39.15 752.162 39.15C751.562 39.15 751.018 39.05 750.532 38.85C750.045 38.6433 749.628 38.3567 749.282 37.99C748.935 37.6167 748.665 37.17 748.472 36.65C748.285 36.1233 748.192 35.5367 748.192 34.89C748.192 34.35 748.248 33.82 748.362 33.3C748.482 32.78 748.652 32.2867 748.872 31.82C749.092 31.3533 749.362 30.9233 749.682 30.53C750.002 30.1367 750.362 29.7967 750.762 29.51C751.168 29.2233 751.612 29 752.092 28.84C752.578 28.68 753.098 28.6 753.652 28.6C754.185 28.6 754.652 28.6767 755.052 28.83C755.458 28.9833 755.795 29.1833 756.062 29.43C756.335 29.67 756.538 29.94 756.672 30.24C756.805 30.54 756.872 30.8333 756.872 31.12C756.872 31.58 756.778 32 756.592 32.38C756.412 32.76 756.085 33.1 755.612 33.4C755.145 33.7 754.505 33.96 753.692 34.18C752.878 34.3933 751.845 34.5633 750.592 34.69V34.82ZM760.668 28.74L759.438 39H757.008L758.238 28.74H760.668ZM761.298 25.75C761.298 25.9633 761.251 26.1633 761.158 26.35C761.071 26.5367 760.954 26.7 760.808 26.84C760.661 26.98 760.494 27.0933 760.308 27.18C760.121 27.26 759.928 27.3 759.728 27.3C759.534 27.3 759.348 27.26 759.168 27.18C758.988 27.0933 758.828 26.98 758.688 26.84C758.548 26.7 758.434 26.5367 758.348 26.35C758.268 26.1633 758.228 25.9633 758.228 25.75C758.228 25.5367 758.271 25.3333 758.358 25.14C758.444 24.9467 758.558 24.78 758.698 24.64C758.838 24.4933 758.998 24.38 759.178 24.3C759.364 24.2133 759.554 24.17 759.748 24.17C759.948 24.17 760.141 24.2133 760.328 24.3C760.514 24.38 760.678 24.49 760.818 24.63C760.964 24.77 761.081 24.9367 761.168 25.13C761.254 25.3233 761.298 25.53 761.298 25.75ZM764.06 31.2C764.32 30.6933 764.597 30.26 764.89 29.9C765.19 29.5333 765.5 29.25 765.82 29.05C766.14 28.8433 766.47 28.7233 766.81 28.69C767.15 28.65 767.49 28.7033 767.83 28.85L767.38 31.21C766.567 30.87 765.853 30.9533 765.24 31.46C764.633 31.9667 764.147 32.9633 763.78 34.45L763.23 39H760.81L762.05 28.73H763.31C763.57 28.73 763.77 28.7933 763.91 28.92C764.057 29.0467 764.13 29.25 764.13 29.53L764.06 31.2ZM773.29 30.36C773.197 30.3533 773.107 30.35 773.02 30.35C772.94 30.3433 772.86 30.34 772.78 30.34C772.227 30.34 771.713 30.4667 771.24 30.72C770.767 30.9733 770.357 31.3167 770.01 31.75C769.67 32.1767 769.4 32.6767 769.2 33.25C769.007 33.8167 768.91 34.4167 768.91 35.05C768.91 35.77 769.023 36.2967 769.25 36.63C769.477 36.9633 769.787 37.13 770.18 37.13C770.453 37.13 770.72 37.0367 770.98 36.85C771.247 36.6567 771.497 36.3967 771.73 36.07C771.97 35.7367 772.187 35.3467 772.38 34.9C772.58 34.4533 772.753 33.9733 772.9 33.46L773.29 30.36ZM772.61 36.86C772.157 37.56 771.643 38.1167 771.07 38.53C770.503 38.9433 769.883 39.15 769.21 39.15C768.823 39.15 768.46 39.0733 768.12 38.92C767.787 38.7667 767.493 38.54 767.24 38.24C766.993 37.9333 766.797 37.5533 766.65 37.1C766.51 36.64 766.44 36.1033 766.44 35.49C766.44 34.8767 766.517 34.28 766.67 33.7C766.823 33.12 767.04 32.5767 767.32 32.07C767.607 31.5567 767.95 31.0867 768.35 30.66C768.75 30.2333 769.197 29.8667 769.69 29.56C770.19 29.2533 770.727 29.0167 771.3 28.85C771.88 28.6767 772.49 28.59 773.13 28.59C773.59 28.59 774.05 28.6233 774.51 28.69C774.977 28.7567 775.43 28.8767 775.87 29.05L774.64 39H773.33C773.017 39 772.803 38.9233 772.69 38.77C772.583 38.61 772.53 38.4133 772.53 38.18L772.61 36.86Z" fill="white"/>
<rect opacity="0.5" x="361" y="180" width="45" height="46" rx="8" fill="#D9D9D9"/>
<rect opacity="0.3" x="142" width="103" height="63" fill="#D9D9D9"/>
<path opacity="0.5" d="M699 189C699 184.582 702.582 181 707 181H736C740.418 181 744 184.582 744 189V219C744 223.418 740.418 227 736 227H707C702.582 227 699 223.418 699 219V189Z" fill="#D9D9D9"/>
<rect opacity="0.35" x="1040" y="181" width="45" height="46" rx="8" fill="#D9D9D9"/>
<rect opacity="0.5" width="45" height="46" rx="8" transform="matrix(-1 0 0 1 68 180)" fill="#D9D9D9"/>
<path fill-rule="evenodd" clip-rule="evenodd" d="M382.771 195.67C381.448 195.824 380.19 196.394 379.144 197.314C378.098 198.234 377.306 199.466 376.861 200.868C376.416 202.27 376.336 203.784 376.629 205.235C376.923 206.686 377.578 208.015 378.519 209.067C379.46 210.119 380.649 210.851 381.947 211.179C383.246 211.507 384.6 211.417 385.855 210.92C387.109 210.422 388.212 209.538 389.035 208.369C389.858 207.2 390.368 205.794 390.506 204.314H383.5C383.307 204.314 383.121 204.228 382.985 204.076C382.848 203.923 382.771 203.716 382.771 203.5V195.67ZM375 203.5C375 200.98 375.896 198.564 377.49 196.782C379.084 195.001 381.246 194 383.5 194C383.693 194 383.879 194.086 384.015 194.238C384.152 194.391 384.229 194.598 384.229 194.814V202.686H391.271C391.465 202.686 391.65 202.772 391.787 202.924C391.923 203.077 392 203.284 392 203.5C392 206.02 391.104 208.436 389.51 210.218C387.916 211.999 385.754 213 383.5 213C381.246 213 379.084 211.999 377.49 210.218C375.896 208.436 375 206.02 375 203.5Z" fill="#466E82"/>
<path fill-rule="evenodd" clip-rule="evenodd" d="M386.322 195.63V200.49H390.574C390.328 199.309 389.8 198.23 389.049 197.372C388.299 196.514 387.354 195.911 386.322 195.63ZM385.879 194.007C389.069 194.46 391.597 197.35 391.994 200.995C392.055 201.547 391.654 202 391.167 202H385.441C385.324 202 385.212 201.947 385.129 201.853C385.046 201.758 385 201.63 385 201.497V194.951C385 194.396 385.396 193.938 385.879 194.007Z" fill="#466E82"/>
<path d="M38 207.37C38.2671 209.99 40.7304 211.849 44.4804 212.089V214H46.3626V212.089C50.4591 211.808 53 209.829 53 206.903C53 204.405 51.291 202.959 47.6655 202.145L46.3626 201.851V195.877C48.3874 196.05 49.7535 196.999 50.0982 198.416H52.751C52.4514 195.902 49.9718 194.098 46.3626 193.898V192H44.4804V193.938C40.9812 194.299 38.5793 196.251 38.5793 198.897C38.5793 201.182 40.3225 202.799 43.3814 203.481L44.4822 203.735V210.07C42.4087 209.803 40.9812 208.813 40.6365 207.37H38ZM44.1195 201.342C42.2372 200.929 41.2321 200.046 41.2321 198.803C41.2321 197.319 42.5025 196.224 44.4804 195.93V201.422L44.1195 201.342ZM46.9906 204.284C49.3132 204.791 50.3328 205.634 50.3328 207.064C50.3328 208.788 48.8422 209.936 46.3626 210.111V204.147L46.9906 204.284Z" fill="#466E82"/>
<path d="M1062.5 212L1069 204.517L1067.52 202.812L1062.5 208.59L1057.48 202.812L1056 204.517L1062.5 212ZM1062.5 205.188L1069 197.705L1067.52 196L1062.5 201.779L1057.48 196L1056 197.705L1062.5 205.188Z" fill="#466E82"/>
<path d="M727 201L719.227 208.125L715.136 204.375L709 210" stroke="#466E82" stroke-width="2" stroke-linecap="round" stroke-linejoin="round"/>
<path d="M723 199H729V204" stroke="#466E82" stroke-width="2" stroke-linecap="round" stroke-linejoin="round"/>
<line x1="1366" y1="132" x2="-0.000366211" y2="132" stroke="#E8E9E9" stroke-width="2"/>
</g>
<defs>
<filter id="filter0_d_122_3" x="9" y="161" width="332" height="105" filterUnits="userSpaceOnUse" color-interpolation-filters="sRGB">
<feFlood flood-opacity="0" result="BackgroundImageFix"/>
<feColorMatrix in="SourceAlpha" type="matrix" values="0 0 0 0 0 0 0 0 0 0 0 0 0 0 0 0 0 0 127 0" result="hardAlpha"/>
<feOffset dy="1"/>
<feGaussianBlur stdDeviation="3.5"/>
<feComposite in2="hardAlpha" operator="out"/>
<feColorMatrix type="matrix" values="0 0 0 0 0 0 0 0 0 0 0 0 0 0 0 0 0 0 0.25 0"/>
<feBlend mode="normal" in2="BackgroundImageFix" result="effect1_dropShadow_122_3"/>
<feBlend mode="normal" in="SourceGraphic" in2="effect1_dropShadow_122_3" result="shape"/>
</filter>
<filter id="filter1_d_122_3" x="347" y="161" width="332" height="105" filterUnits="userSpaceOnUse" color-interpolation-filters="sRGB">
<feFlood flood-opacity="0" result="BackgroundImageFix"/>
<feColorMatrix in="SourceAlpha" type="matrix" values="0 0 0 0 0 0 0 0 0 0 0 0 0 0 0 0 0 0 127 0" result="hardAlpha"/>
<feOffset dy="1"/>
<feGaussianBlur stdDeviation="3.5"/>
<feComposite in2="hardAlpha" operator="out"/>
<feColorMatrix type="matrix" values="0 0 0 0 0 0 0 0 0 0 0 0 0 0 0 0 0 0 0.25 0"/>
<feBlend mode="normal" in2="BackgroundImageFix" result="effect1_dropShadow_122_3"/>
<feBlend mode="normal" in="SourceGraphic" in2="effect1_dropShadow_122_3" result="shape"/>
</filter>
<filter id="filter2_d_122_3" x="9" y="278" width="1008" height="233" filterUnits="userSpaceOnUse" color-interpolation-filters="sRGB">
<feFlood flood-opacity="0" result="BackgroundImageFix"/>
<feColorMatrix in="SourceAlpha" type="matrix" values="0 0 0 0 0 0 0 0 0 0 0 0 0 0 0 0 0 0 127 0" result="hardAlpha"/>
<feOffset dy="1"/>
<feGaussianBlur stdDeviation="3.5"/>
<feComposite in2="hardAlpha" operator="out"/>
<feColorMatrix type="matrix" values="0 0 0 0 0 0 0 0 0 0 0 0 0 0 0 0 0 0 0.25 0"/>
<feBlend mode="normal" in2="BackgroundImageFix" result="effect1_dropShadow_122_3"/>
<feBlend mode="normal" in="SourceGraphic" in2="effect1_dropShadow_122_3" result="shape"/>
</filter>
<filter id="filter3_d_122_3" x="1024" y="278" width="331" height="233" filterUnits="userSpaceOnUse" color-interpolation-filters="sRGB">
<feFlood flood-opacity="0" result="BackgroundImageFix"/>
<feColorMatrix in="SourceAlpha" type="matrix" values="0 0 0 0 0 0 0 0 0 0 0 0 0 0 0 0 0 0 127 0" result="hardAlpha"/>
<feOffset dy="1"/>
<feGaussianBlur stdDeviation="3.5"/>
<feComposite in2="hardAlpha" operator="out"/>
<feColorMatrix type="matrix" values="0 0 0 0 0 0 0 0 0 0 0 0 0 0 0 0 0 0 0.25 0"/>
<feBlend mode="normal" in2="BackgroundImageFix" result="effect1_dropShadow_122_3"/>
<feBlend mode="normal" in="SourceGraphic" in2="effect1_dropShadow_122_3" result="shape"/>
</filter>
<filter id="filter4_d_122_3" x="817" y="523" width="539" height="237" filterUnits="userSpaceOnUse" color-interpolation-filters="sRGB">
<feFlood flood-opacity="0" result="BackgroundImageFix"/>
<feColorMatrix in="SourceAlpha" type="matrix" values="0 0 0 0 0 0 0 0 0 0 0 0 0 0 0 0 0 0 127 0" result="hardAlpha"/>
<feOffset dy="1"/>
<feGaussianBlur stdDeviation="3.5"/>
<feComposite in2="hardAlpha" operator="out"/>
<feColorMatrix type="matrix" values="0 0 0 0 0 0 0 0 0 0 0 0 0 0 0 0 0 0 0.25 0"/>
<feBlend mode="normal" in2="BackgroundImageFix" result="effect1_dropShadow_122_3"/>
<feBlend mode="normal" in="SourceGraphic" in2="effect1_dropShadow_122_3" result="shape"/>
</filter>
<filter id="filter5_d_122_3" x="9" y="523" width="801" height="237" filterUnits="userSpaceOnUse" color-interpolation-filters="sRGB">
<feFlood flood-opacity="0" result="BackgroundImageFix"/>
<feColorMatrix in="SourceAlpha" type="matrix" values="0 0 0 0 0 0 0 0 0 0 0 0 0 0 0 0 0 0 127 0" result="hardAlpha"/>
<feOffset dy="1"/>
<feGaussianBlur stdDeviation="3.5"/>
<feComposite in2="hardAlpha" operator="out"/>
<feColorMatrix type="matrix" values="0 0 0 0 0 0 0 0 0 0 0 0 0 0 0 0 0 0 0.25 0"/>
<feBlend mode="normal" in2="BackgroundImageFix" result="effect1_dropShadow_122_3"/>
<feBlend mode="normal" in="SourceGraphic" in2="effect1_dropShadow_122_3" result="shape"/>
</filter>
<filter id="filter6_d_122_3" x="1024" y="160" width="332" height="106" filterUnits="userSpaceOnUse" color-interpolation-filters="sRGB">
<feFlood flood-opacity="0" result="BackgroundImageFix"/>
<feColorMatrix in="SourceAlpha" type="matrix" values="0 0 0 0 0 0 0 0 0 0 0 0 0 0 0 0 0 0 127 0" result="hardAlpha"/>
<feOffset dy="1"/>
<feGaussianBlur stdDeviation="3.5"/>
<feComposite in2="hardAlpha" operator="out"/>
<feColorMatrix type="matrix" values="0 0 0 0 0 0 0 0 0 0 0 0 0 0 0 0 0 0 0.25 0"/>
<feBlend mode="normal" in2="BackgroundImageFix" result="effect1_dropShadow_122_3"/>
<feBlend mode="normal" in="SourceGraphic" in2="effect1_dropShadow_122_3" result="shape"/>
</filter>
<filter id="filter7_d_122_3" x="685" y="160" width="332" height="106" filterUnits="userSpaceOnUse" color-interpolation-filters="sRGB">
<feFlood flood-opacity="0" result="BackgroundImageFix"/>
<feColorMatrix in="SourceAlpha" type="matrix" values="0 0 0 0 0 0 0 0 0 0 0 0 0 0 0 0 0 0 127 0" result="hardAlpha"/>
<feOffset dy="1"/>
<feGaussianBlur stdDeviation="3.5"/>
<feComposite in2="hardAlpha" operator="out"/>
<feColorMatrix type="matrix" values="0 0 0 0 0 0 0 0 0 0 0 0 0 0 0 0 0 0 0.25 0"/>
<feBlend mode="normal" in2="BackgroundImageFix" result="effect1_dropShadow_122_3"/>
<feBlend mode="normal" in="SourceGraphic" in2="effect1_dropShadow_122_3" result="shape"/>
</filter>
<clipPath id="clip0_122_3">
<rect width="1366" height="768" rx="3" fill="white"/>
</clipPath>
</defs>
</svg>
